<svg width="162" height="42" viewBox="0 0 162 42" fill="none" xmlns="http://www.w3.org/2000/svg">
<path d="M24.4011 20.448C26.7157 21.0827 28.5077 22.24 29.7771 23.92C31.0464 25.6 31.6811 27.672 31.6811 30.136C31.6811 33.5707 30.4864 36.24 28.0971 38.144C25.7451 40.048 22.4411 41 18.1851 41H0.937063V1.128H17.6251C21.7317 1.128 24.9237 2.04267 27.2011 3.872C29.5157 5.70133 30.6731 8.25867 30.6731 11.544C30.6731 13.672 30.1131 15.52 28.9931 17.088C27.9104 18.6187 26.3797 19.7387 24.4011 20.448ZM6.64906 18.432H16.7291C22.2917 18.432 25.0731 16.2853 25.0731 11.992C25.0731 7.848 22.2917 5.776 16.7291 5.776H6.64906V18.432ZM17.6251 36.352C20.5371 36.352 22.6651 35.8293 24.0091 34.784C25.3531 33.7013 26.0251 32.04 26.0251 29.8C26.0251 27.5227 25.3344 25.8427 23.9531 24.76C22.6091 23.64 20.4997 23.08 17.6251 23.08H6.64906V36.352H17.6251ZM56.409 41.448C52.6383 41.448 49.353 40.6267 46.553 38.984C43.7903 37.304 41.6437 34.9333 40.113 31.872C38.6197 28.8107 37.873 25.208 37.873 21.064C37.873 16.8827 38.6197 13.2613 40.113 10.2C41.6063 7.13867 43.753 4.78666 46.553 3.144C49.353 1.50133 52.6383 0.679998 56.409 0.679998C60.217 0.679998 63.5023 1.50133 66.265 3.144C69.065 4.78666 71.2117 7.13867 72.705 10.2C74.1983 13.2613 74.945 16.864 74.945 21.008C74.945 25.1893 74.1983 28.8107 72.705 31.872C71.2117 34.9333 69.065 37.304 66.265 38.984C63.465 40.6267 60.1797 41.448 56.409 41.448ZM56.409 36.744C60.4037 36.744 63.5023 35.3813 65.705 32.656C67.945 29.9307 69.065 26.048 69.065 21.008C69.065 16.0053 67.945 12.16 65.705 9.472C63.5023 6.74666 60.4037 5.384 56.409 5.384C52.4143 5.384 49.3157 6.74666 47.113 9.472C44.9103 12.16 43.809 16.0053 43.809 21.008C43.809 26.048 44.9103 29.9307 47.113 32.656C49.353 35.3813 52.4517 36.744 56.409 36.744ZM116.738 1.128V41H110.97V23.136H88.6256V41H82.9136V1.128H88.6256V18.376H110.97V1.128H116.738ZM143.143 41.448C139.373 41.448 136.087 40.6267 133.287 38.984C130.525 37.304 128.378 34.9333 126.847 31.872C125.354 28.8107 124.607 25.208 124.607 21.064C124.607 16.8827 125.354 13.2613 126.847 10.2C128.341 7.13867 130.487 4.78666 133.287 3.144C136.087 1.50133 139.373 0.679998 143.143 0.679998C146.951 0.679998 150.237 1.50133 152.999 3.144C155.799 4.78666 157.946 7.13867 159.439 10.2C160.933 13.2613 161.679 16.864 161.679 21.008C161.679 25.1893 160.933 28.8107 159.439 31.872C157.946 34.9333 155.799 37.304 152.999 38.984C150.199 40.6267 146.914 41.448 143.143 41.448ZM143.143 36.744C147.138 36.744 150.237 35.3813 152.439 32.656C154.679 29.9307 155.799 26.048 155.799 21.008C155.799 16.0053 154.679 12.16 152.439 9.472C150.237 6.74666 147.138 5.384 143.143 5.384C139.149 5.384 136.05 6.74666 133.847 9.472C131.645 12.16 130.543 16.0053 130.543 21.008C130.543 26.048 131.645 29.9307 133.847 32.656C136.087 35.3813 139.186 36.744 143.143 36.744Z" fill="black"/>
</svg>
