<svg width="19" height="20" viewBox="0 0 19 20" fill="none" xmlns="http://www.w3.org/2000/svg">
<path d="M8.05127 1C6.65666 1 5.29337 1.41355 4.1338 2.18835C2.97422 2.96316 2.07044 4.06441 1.53675 5.35287C1.00306 6.64132 0.863417 8.05909 1.13549 9.4269C1.40757 10.7947 2.07913 12.0511 3.06527 13.0373C4.05141 14.0234 5.30783 14.695 6.67564 14.967C8.04345 15.2391 9.46123 15.0995 10.7497 14.5658C12.0381 14.0321 13.1394 13.1283 13.9142 11.9687C14.689 10.8092 15.1025 9.44588 15.1025 8.05127C15.1024 6.18119 14.3595 4.38774 13.0371 3.0654C11.7148 1.74306 9.92135 1.00012 8.05127 1V1Z" stroke="white" stroke-width="1.15384" stroke-miterlimit="10"/>
<path d="M12.5386 13.8197L17.6668 18.9479" stroke="white" stroke-width="1.15384" stroke-miterlimit="10" stroke-linecap="round"/>
</svg>
